<svg width="789" height="585" viewBox="0 0 789 585" fill="none" xmlns="http://www.w3.org/2000/svg">
<path fill-rule="evenodd" clip-rule="evenodd" d="M788.5 557.5C785.78 569.112 782.861 575.117 774 584.5H102.5C93.8681 577.48 90.069 573.029 86.5 563.5V437C-32.3666 390.103 -20.4733 325.403 84 202.5H0C55.8355 181.274 78.1696 163.201 89 111V0H103.5L156.5 49L212 0H245L301 49L357 0H370.5L374 351.5C431.366 409.232 462.019 407.608 512.5 351.5V179.5L580.5 238L650.5 176.5L719 238L788.5 179.5V557.5ZM167.5 159C182.136 159 194 147.136 194 132.5C194 117.864 182.136 106 167.5 106C152.864 106 141 117.864 141 132.5C141 147.136 152.864 159 167.5 159Z" fill="#FFC107"/>
</svg>
