<svg xmlns="http://www.w3.org/2000/svg" xmlns:xlink="http://www.w3.org/1999/xlink">
    <defs>
        <symbol id="beer">
            <path d="M104 104v80a8 8 0 0 1-16 0v-80a8 8 0 0 1 16 0Zm40-8a8 8 0 0 0-8 8v80a8 8 0 0 0 16 0v-80a8 8 0 0 0-8-8Zm96 16v64a24 24 0 0 1-24 24h-16v8a16 16 0 0 1-16 16H56a16 16 0 0 1-16-16V72c0-30.88 28.71-56 64-56 16.77 0 32.91 5.8 44.82 16H160a40 40 0 0 1 40 40v16h16a24 24 0 0 1 24 24ZM57 64h125.62A24 24 0 0 0 160 48h-14.26a8 8 0 0 1-5.53-2.22C131.06 37 117.87 32 104 32c-23.18 0-42.57 13.76-47 32Zm127 144V80H56v128h128Zm40-96a8 8 0 0 0-8-8h-16v80h16a8 8 0 0 0 8-8Z"/>
        </symbol>
        <symbol id="home">
            <path d="m218.83 103.77-80-75.48a1.14 1.14 0 0 1-.11-.11 16 16 0 0 0-21.53 0l-.11.11-79.91 75.48A16 16 0 0 0 32 115.55V208a16 16 0 0 0 16 16h48a16 16 0 0 0 16-16v-48h32v48a16 16 0 0 0 16 16h48a16 16 0 0 0 16-16v-92.45a16 16 0 0 0-5.17-11.78ZM208 208h-48v-48a16 16 0 0 0-16-16h-32a16 16 0 0 0-16 16v48H48v-92.45l.11-.1L128 40l79.9 75.43.11.1Z"/>
        </symbol>
        <symbol id="tupp" >
            <path d="M788.5 557.5C785.78 569.112 782.861 575.117 774 584.5H102.5C93.8681 577.48 90.069 573.029 86.5 563.5V437C-32.3666 390.103 -20.4733 325.403 84 202.5H0C55.8355 181.274 78.1696 163.201 89 111V0H103.5L156.5 49L212 0H245L301 49L357 0H370.5L374 351.5C431.366 409.232 462.019 407.608 512.5 351.5V179.5L580.5 238L650.5 176.5L719 238L788.5 179.5V557.5ZM167.5 159C182.136 159 194 147.136 194 132.5C194 117.864 182.136 106 167.5 106C152.864 106 141 117.864 141 132.5C141 147.136 152.864 159 167.5 159Z"/>
        </symbol>
        <symbol id="user">
            <path d="M230.92,212c-15.23-26.33-38.7-45.21-66.09-54.16a72,72,0,1,0-73.66,0C63.78,166.78,40.31,185.66,25.08,212a8,8,0,1,0,13.85,8c18.84-32.56,52.14-52,89.07-52s70.23,19.44,89.07,52a8,8,0,1,0,13.85-8ZM72,96a56,56,0,1,1,56,56A56.06,56.06,0,0,1,72,96Z">
        </symbol>
    </defs>
</svg>